<svg xmlns="http://www.w3.org/2000/svg" xmlns:xlink="http://www.w3.org/1999/xlink" width="500" zoomAndPan="magnify" viewBox="0 0 375 374.999991" height="500" preserveAspectRatio="xMidYMid meet" version="1.0"><defs><g/><clipPath id="9e95510f8c"><path d="M 10.523438 73.957031 L 365.273438 73.957031 L 365.273438 263.707031 L 10.523438 263.707031 Z M 10.523438 73.957031 " clip-rule="nonzero"/></clipPath></defs><path fill="#0b6095" d="M 166.105469 212.5 C 179.671875 215.074219 195.234375 204.789062 189.769531 197.035156 C 186.296875 192.105469 183.925781 192.007812 174.890625 196.414062 C 162.871094 202.285156 150.445312 198.5625 146.035156 187.769531 C 143.652344 181.933594 141.320312 184.324219 143.632812 191.109375 C 146.988281 200.953125 151.765625 209.777344 166.105469 212.5 Z M 166.105469 212.5 " fill-opacity="1" fill-rule="nonzero"/><path fill="#1089d6" d="M 155.621094 130.878906 C 126.226562 130.878906 102.320312 154.835938 102.320312 184.292969 C 102.320312 213.746094 126.226562 237.707031 155.621094 237.707031 C 185.011719 237.707031 208.921875 213.746094 208.921875 184.292969 C 208.921875 154.835938 185.011719 130.878906 155.621094 130.878906 Z M 155.621094 138.296875 C 181.011719 138.296875 201.515625 158.847656 201.515625 184.292969 C 201.515625 209.738281 181.011719 230.289062 155.621094 230.289062 C 130.226562 230.289062 109.722656 209.738281 109.722656 184.292969 C 109.722656 158.847656 130.226562 138.296875 155.621094 138.296875 Z M 126.234375 165.828125 C 125.082031 165.84375 123.921875 166.023438 122.777344 166.390625 C 110.371094 170.371094 109.023438 190.589844 120.058594 207.261719 C 124.121094 213.402344 133.96875 221.648438 139.65625 223.671875 C 157.664062 230.078125 175.75 226.214844 187.929688 213.359375 C 193.484375 207.5 192.085938 205.605469 185.667969 210.285156 C 176.171875 217.214844 158.84375 215.691406 150.253906 207.175781 C 143.589844 200.566406 139.949219 190.851562 140.933594 182.308594 C 141.9375 173.59375 134.292969 165.699219 126.234375 165.828125 Z M 126.234375 165.828125 " fill-opacity="1" fill-rule="nonzero"/><path fill="#1089d6" d="M 50.292969 96.160156 C 47.761719 96.160156 45.746094 98.179688 45.746094 100.71875 C 45.746094 103.257812 47.761719 105.273438 50.292969 105.273438 C 52.828125 105.273438 54.84375 103.257812 54.84375 100.71875 C 54.84375 98.179688 52.828125 96.160156 50.292969 96.160156 Z M 66.519531 96.457031 C 61.378906 96.457031 57.289062 100.550781 57.289062 105.703125 C 57.289062 110.855469 61.378906 114.953125 66.519531 114.953125 C 71.660156 114.953125 75.746094 110.855469 75.746094 105.703125 C 75.746094 100.550781 71.660156 96.457031 66.519531 96.457031 Z M 53.167969 108.007812 C 51.601562 108.007812 50.359375 109.257812 50.359375 110.828125 C 50.359375 112.394531 51.601562 113.644531 53.167969 113.644531 C 54.734375 113.644531 55.980469 112.394531 55.980469 110.828125 C 55.980469 109.257812 54.734375 108.007812 53.167969 108.007812 Z M 49.6875 141.753906 C 45.832031 141.753906 42.761719 144.828125 42.761719 148.691406 C 42.761719 152.554688 45.832031 155.628906 49.6875 155.628906 C 53.542969 155.628906 56.609375 152.554688 56.609375 148.691406 C 56.609375 144.828125 53.542969 141.753906 49.6875 141.753906 Z M 36.765625 141.957031 C 34.234375 141.957031 32.21875 143.976562 32.21875 146.511719 C 32.21875 149.050781 34.234375 151.070312 36.765625 151.070312 C 39.300781 151.070312 41.3125 149.050781 41.3125 146.511719 C 41.3125 143.976562 39.300781 141.957031 36.765625 141.957031 Z M 30.828125 150.171875 C 29.265625 150.171875 28.023438 151.414062 28.023438 152.980469 C 28.023438 154.546875 29.265625 155.789062 30.828125 155.789062 C 32.390625 155.789062 33.632812 154.546875 33.632812 152.980469 C 33.632812 151.414062 32.390625 150.171875 30.828125 150.171875 Z M 73.027344 182.003906 C 68.980469 182.003906 65.761719 185.226562 65.761719 189.28125 C 65.761719 193.339844 68.980469 196.5625 73.027344 196.5625 C 77.074219 196.5625 80.292969 193.339844 80.292969 189.28125 C 80.292969 185.226562 77.074219 182.003906 73.027344 182.003906 Z M 62.824219 182.585938 C 61.550781 182.585938 60.535156 183.601562 60.535156 184.878906 C 60.535156 186.15625 61.550781 187.175781 62.824219 187.175781 C 64.101562 187.175781 65.117188 186.160156 65.117188 184.878906 C 65.117188 183.601562 64.101562 182.585938 62.824219 182.585938 Z M 58.109375 187.449219 C 55.574219 187.449219 53.558594 189.46875 53.558594 192.007812 C 53.558594 194.546875 55.574219 196.5625 58.109375 196.5625 C 60.640625 196.5625 62.65625 194.546875 62.65625 192.007812 C 62.65625 189.46875 60.640625 187.449219 58.109375 187.449219 Z M 58.109375 227.019531 C 53.191406 227.019531 49.28125 230.9375 49.28125 235.863281 C 49.28125 240.789062 53.191406 244.710938 58.109375 244.710938 C 63.023438 244.710938 66.933594 240.789062 66.933594 235.863281 C 66.933594 230.9375 63.023438 227.019531 58.109375 227.019531 Z M 39.964844 228.148438 C 37.152344 228.148438 34.917969 230.386719 34.917969 233.199219 C 34.917969 236.015625 37.152344 238.253906 39.964844 238.253906 C 42.773438 238.253906 45.007812 236.015625 45.007812 233.199219 C 45.007812 230.386719 42.773438 228.148438 39.964844 228.148438 Z M 46.027344 238.703125 C 44.109375 238.703125 42.582031 240.230469 42.582031 242.152344 C 42.582031 244.078125 44.109375 245.605469 46.027344 245.605469 C 47.949219 245.605469 49.476562 244.078125 49.476562 242.152344 C 49.476562 240.230469 47.949219 238.703125 46.027344 238.703125 Z M 46.027344 238.703125 " fill-opacity="1" fill-rule="nonzero"/><g clip-path="url(#9e95510f8c)"><path fill="#0b6095" d="M 54.921875 73.949219 C 50.765625 73.949219 47.394531 77.328125 47.394531 81.492188 C 47.394531 85.660156 50.765625 89.035156 54.921875 89.035156 L 66.519531 89.035156 C 75.660156 89.035156 83.152344 96.542969 83.152344 105.703125 C 83.152344 114.867188 75.660156 122.375 66.519531 122.375 L 17.527344 122.375 C 13.71875 122.375 10.632812 125.46875 10.632812 129.285156 C 10.632812 133.097656 13.71875 136.191406 17.527344 136.191406 L 49.6875 136.191406 C 56.542969 136.191406 62.164062 141.820312 62.164062 148.691406 C 62.164062 155.5625 56.542969 161.191406 49.6875 161.191406 L 39.777344 161.191406 C 35.652344 161.191406 32.304688 164.546875 32.304688 168.679688 C 32.304688 172.8125 35.652344 176.164062 39.777344 176.164062 L 73.027344 176.164062 C 80.226562 176.164062 86.125 182.070312 86.125 189.285156 C 86.125 196.496094 80.136719 201.277344 73.027344 202.40625 L 33.023438 202.40625 C 28.195312 202.40625 24.28125 206.328125 24.285156 211.167969 C 24.285156 216.003906 28.199219 219.925781 33.023438 219.925781 L 58.101562 219.925781 C 66.847656 219.925781 74.007812 227.101562 74.007812 235.863281 C 74.007812 244.625 66.847656 251.804688 58.101562 251.804688 L 46.160156 251.804688 C 42.878906 251.804688 40.21875 254.46875 40.21875 257.753906 C 40.21875 261.042969 42.878906 263.710938 46.160156 263.710938 L 230.222656 263.710938 C 231.144531 263.710938 232.058594 263.621094 232.960938 263.441406 C 233.863281 263.261719 234.742188 262.992188 235.589844 262.640625 C 236.441406 262.285156 237.25 261.855469 238.015625 261.339844 C 238.78125 260.828125 239.492188 260.246094 240.140625 259.59375 C 240.792969 258.941406 241.375 258.230469 241.886719 257.464844 C 242.398438 256.695312 242.832031 255.886719 243.183594 255.03125 C 243.535156 254.179688 243.800781 253.300781 243.980469 252.394531 C 244.160156 251.492188 244.25 250.578125 244.25 249.652344 L 244.25 213.289062 L 273.488281 213.289062 L 307.824219 263.710938 L 365.167969 263.710938 L 324.28125 204.003906 C 335.730469 198.480469 344.695312 190.929688 351.105469 181.300781 C 357.957031 170.816406 361.382812 158.4375 361.382812 144.160156 C 361.382812 129.703125 357.957031 117.234375 351.105469 106.753906 C 344.25 96.089844 334.511719 87.957031 321.886719 82.355469 C 309.445312 76.75 294.566406 73.949219 277.25 73.949219 Z M 114.742188 87.699219 C 119.347656 87.699219 123.007812 91.371094 123.007812 95.980469 C 123.007812 100.59375 119.347656 104.261719 114.742188 104.261719 C 110.140625 104.261719 106.480469 100.59375 106.480469 95.980469 C 106.480469 91.371094 110.140625 87.699219 114.742188 87.699219 Z M 138.234375 87.699219 C 142.839844 87.699219 146.5 91.371094 146.5 95.980469 C 146.5 100.59375 142.839844 104.261719 138.234375 104.261719 C 133.632812 104.261719 129.972656 100.59375 129.972656 95.980469 C 129.972656 91.371094 133.632812 87.699219 138.234375 87.699219 Z M 161.726562 87.699219 C 166.328125 87.699219 169.988281 91.371094 169.988281 95.980469 C 169.988281 100.59375 166.328125 104.261719 161.726562 104.261719 C 157.125 104.261719 153.464844 100.59375 153.464844 95.980469 C 153.464844 91.371094 157.125 87.699219 161.726562 87.699219 Z M 244.25 116.242188 L 274.003906 116.242188 C 285.1875 116.242188 293.484375 118.679688 298.894531 123.558594 C 304.484375 128.4375 307.28125 135.304688 307.28125 144.160156 C 307.28125 152.835938 304.484375 159.613281 298.894531 164.492188 C 293.484375 169.371094 285.1875 171.8125 274.003906 171.8125 L 244.25 171.8125 Z M 155.621094 124.554688 C 188.710938 124.554688 215.234375 151.132812 215.234375 184.292969 C 215.234375 217.453125 188.710938 244.03125 155.621094 244.03125 C 122.53125 244.03125 96.007812 217.453125 96.007812 184.292969 C 96.007812 151.132812 122.53125 124.554688 155.621094 124.554688 Z M 155.621094 124.554688 " fill-opacity="1" fill-rule="nonzero"/></g><path fill="#1089d6" d="M 165.210938 194.859375 C 160.019531 194.859375 155.890625 190.722656 155.890625 185.523438 C 155.890625 180.324219 160.019531 176.1875 165.210938 176.1875 C 170.398438 176.1875 174.527344 180.324219 174.527344 185.523438 C 174.527344 190.722656 170.398438 194.859375 165.210938 194.859375 Z M 165.210938 194.859375 " fill-opacity="1" fill-rule="nonzero"/><path fill="#1089d6" d="M 145.566406 154.265625 C 142.601562 154.265625 140.242188 156.628906 140.242188 159.601562 C 140.242188 162.574219 142.601562 164.9375 145.566406 164.9375 C 148.53125 164.9375 150.890625 162.574219 150.890625 159.601562 C 150.890625 156.628906 148.53125 154.265625 145.566406 154.265625 Z M 145.566406 154.265625 " fill-opacity="1" fill-rule="nonzero"/><g fill="#0b6095" fill-opacity="1"><g transform="translate(34.935852, 289.933434)"><g><path d="M 15.421875 -8.09375 C 16.941406 -5.71875 18.46875 -3.515625 20 -1.484375 L 19.890625 -0.796875 C 17.734375 -0.140625 15.609375 0.25 13.515625 0.375 L 12.921875 -0.125 L 12.53125 -0.921875 C 12.363281 -1.253906 12.023438 -1.96875 11.515625 -3.0625 C 11.015625 -4.15625 10.570312 -5.175781 10.1875 -6.125 L 8.0625 -6.125 L 8.28125 0 L 1.90625 0 L 2.21875 -6.03125 L 1.90625 -20.53125 L 11.640625 -20.5625 C 13.953125 -20.5625 15.726562 -20.015625 16.96875 -18.921875 C 18.21875 -17.835938 18.84375 -16.269531 18.84375 -14.21875 C 18.84375 -13.007812 18.539062 -11.875 17.9375 -10.8125 C 17.34375 -9.757812 16.503906 -8.851562 15.421875 -8.09375 Z M 12.15625 -13.578125 C 12.15625 -14.429688 11.9375 -15.0625 11.5 -15.46875 C 11.070312 -15.882812 10.367188 -16.113281 9.390625 -16.15625 L 8.25 -16.0625 L 8.125 -10.765625 L 10.4375 -10.625 C 11.03125 -10.90625 11.460938 -11.273438 11.734375 -11.734375 C 12.015625 -12.203125 12.15625 -12.816406 12.15625 -13.578125 Z M 12.15625 -13.578125 "/></g></g></g><g fill="#0b6095" fill-opacity="1"><g transform="translate(56.546865, 289.933434)"><g><path d="M 8.03125 -6.671875 L 8.28125 0 L 1.90625 0 L 2.21875 -6.03125 L 1.90625 -20.53125 L 8.375 -20.53125 Z M 8.03125 -6.671875 "/></g></g></g><g fill="#0b6095" fill-opacity="1"><g transform="translate(68.510955, 289.933434)"><g><path d="M 20.28125 -6.703125 L 20.53125 0 L 13.609375 0 L 7.84375 -10.984375 L 7.453125 -10.984375 L 7.421875 -7.421875 L 7.6875 0 L 1.90625 0 L 2.21875 -6.03125 L 1.90625 -20.53125 L 8.828125 -20.53125 L 14.59375 -9.546875 L 14.984375 -9.546875 L 14.78125 -20.3125 L 20.625 -20.65625 Z M 20.28125 -6.703125 "/></g></g></g><g fill="#0b6095" fill-opacity="1"><g transform="translate(92.628898, 289.933434)"><g><path d="M 22.9375 0 L 16.21875 0 L 14.28125 -7.421875 L 13.90625 -7.421875 L 12.125 0 L 5.359375 0 L 0.546875 -20.53125 L 6.703125 -20.53125 L 7.015625 -17.359375 L 9.015625 -6.375 L 9.390625 -6.375 L 11.78125 -15.734375 L 10.6875 -20.53125 L 17.109375 -20.53125 L 17.546875 -16.71875 L 19.703125 -6.375 L 20.09375 -6.375 L 22.59375 -16.984375 L 23.171875 -20.53125 L 29 -20.53125 Z M 22.9375 0 "/></g></g></g><g fill="#0b6095" fill-opacity="1"><g transform="translate(123.220429, 289.933434)"><g><path d="M 19.578125 0 L 13.140625 0 L 12.5625 -3.390625 L 12.53125 -3.484375 L 9.421875 -3.546875 L 6.828125 -3.421875 L 6.28125 0 L 0.0625 0 L 6.28125 -20.53125 L 13.96875 -20.53125 Z M 11.578125 -8.125 L 10.1875 -14.859375 L 9.8125 -14.859375 L 8.03125 -8.125 L 9.8125 -8.09375 Z M 11.578125 -8.125 "/></g></g></g><g fill="#0b6095" fill-opacity="1"><g transform="translate(144.704504, 289.933434)"><g><path d="M 9.671875 -20.90625 C 11.679688 -20.90625 13.671875 -20.535156 15.640625 -19.796875 L 14.625 -14.625 L 13.734375 -14.25 C 12.847656 -14.800781 11.972656 -15.234375 11.109375 -15.546875 C 10.242188 -15.867188 9.546875 -16.03125 9.015625 -16.03125 C 8.523438 -16.03125 8.132812 -15.929688 7.84375 -15.734375 C 7.5625 -15.546875 7.421875 -15.296875 7.421875 -14.984375 C 7.421875 -14.578125 7.640625 -14.226562 8.078125 -13.9375 C 8.515625 -13.65625 9.238281 -13.285156 10.25 -12.828125 C 11.4375 -12.296875 12.410156 -11.800781 13.171875 -11.34375 C 13.929688 -10.882812 14.597656 -10.257812 15.171875 -9.46875 C 15.742188 -8.675781 16.03125 -7.695312 16.03125 -6.53125 C 16.03125 -5.238281 15.675781 -4.066406 14.96875 -3.015625 C 14.257812 -1.972656 13.25 -1.144531 11.9375 -0.53125 C 10.625 0.0703125 9.097656 0.375 7.359375 0.375 C 5.203125 0.375 2.941406 -0.0234375 0.578125 -0.828125 L 1.484375 -6.34375 L 2.125 -6.734375 C 3.101562 -5.984375 4.144531 -5.390625 5.25 -4.953125 C 6.363281 -4.523438 7.289062 -4.3125 8.03125 -4.3125 C 8.625 -4.3125 9.050781 -4.410156 9.3125 -4.609375 C 9.570312 -4.816406 9.703125 -5.066406 9.703125 -5.359375 C 9.703125 -5.804688 9.472656 -6.179688 9.015625 -6.484375 C 8.566406 -6.796875 7.835938 -7.171875 6.828125 -7.609375 C 5.660156 -8.117188 4.703125 -8.601562 3.953125 -9.0625 C 3.203125 -9.519531 2.550781 -10.144531 2 -10.9375 C 1.445312 -11.726562 1.171875 -12.707031 1.171875 -13.875 C 1.171875 -15.207031 1.53125 -16.40625 2.25 -17.46875 C 2.96875 -18.539062 3.972656 -19.378906 5.265625 -19.984375 C 6.554688 -20.597656 8.023438 -20.90625 9.671875 -20.90625 Z M 9.671875 -20.90625 "/></g></g></g><g fill="#0b6095" fill-opacity="1"><g transform="translate(163.046979, 289.933434)"><g><path d="M 20.5625 -6.671875 L 20.8125 0 L 14.4375 0 L 14.75 -6.03125 L 14.71875 -7.609375 L 11.296875 -7.6875 L 8.34375 -7.578125 L 8.3125 -6.671875 L 8.5625 0 L 2.1875 0 L 2.5 -6.03125 L 2.1875 -20.53125 L 8.65625 -20.53125 L 8.46875 -12.75 L 11.671875 -12.6875 L 14.59375 -12.75 L 14.4375 -20.53125 L 20.90625 -20.53125 Z M 20.5625 -6.671875 "/></g></g></g><g fill="#0b6095" fill-opacity="1"><g transform="translate(187.196656, 289.933434)"><g/></g></g><g fill="#0b6095" fill-opacity="1"><g transform="translate(193.067953, 289.933434)"><g><path d="M 14.34375 -4.765625 L 13.96875 0 L 1.75 0 L 2.0625 -6.03125 L 1.75 -20.53125 L 8.21875 -20.53125 L 7.875 -6.671875 L 7.9375 -5.203125 L 14 -5.203125 Z M 14.34375 -4.765625 "/></g></g></g><g fill="#0b6095" fill-opacity="1"><g transform="translate(208.998693, 289.933434)"><g><path d="M 19.578125 0 L 13.140625 0 L 12.5625 -3.390625 L 12.53125 -3.484375 L 9.421875 -3.546875 L 6.828125 -3.421875 L 6.28125 0 L 0.0625 0 L 6.28125 -20.53125 L 13.96875 -20.53125 Z M 11.578125 -8.125 L 10.1875 -14.859375 L 9.8125 -14.859375 L 8.03125 -8.125 L 9.8125 -8.09375 Z M 11.578125 -8.125 "/></g></g></g><g fill="#0b6095" fill-opacity="1"><g transform="translate(230.482777, 289.933434)"><g><path d="M 19.046875 -10.125 L 19.015625 -6.859375 C 18.992188 -4.523438 18.207031 -2.734375 16.65625 -1.484375 C 15.113281 -0.242188 12.90625 0.375 10.03125 0.375 C 7.257812 0.375 5.132812 -0.242188 3.65625 -1.484375 C 2.1875 -2.734375 1.488281 -4.523438 1.5625 -6.859375 L 1.65625 -10.125 L 1.453125 -20.53125 L 7.84375 -20.53125 L 7.546875 -7.71875 C 7.523438 -6.632812 7.734375 -5.847656 8.171875 -5.359375 C 8.609375 -4.878906 9.3125 -4.640625 10.28125 -4.640625 C 11.28125 -4.640625 12 -4.878906 12.4375 -5.359375 C 12.882812 -5.847656 13.097656 -6.632812 13.078125 -7.71875 L 12.78125 -20.53125 L 19.265625 -20.53125 Z M 19.046875 -10.125 "/></g></g></g><g fill="#0b6095" fill-opacity="1"><g transform="translate(252.79192, 289.933434)"><g><path d="M 20.28125 -6.703125 L 20.53125 0 L 13.609375 0 L 7.84375 -10.984375 L 7.453125 -10.984375 L 7.421875 -7.421875 L 7.6875 0 L 1.90625 0 L 2.21875 -6.03125 L 1.90625 -20.53125 L 8.828125 -20.53125 L 14.59375 -9.546875 L 14.984375 -9.546875 L 14.78125 -20.3125 L 20.625 -20.65625 Z M 20.28125 -6.703125 "/></g></g></g><g fill="#0b6095" fill-opacity="1"><g transform="translate(276.909871, 289.933434)"><g><path d="M 11.171875 -20.65625 C 14.191406 -20.65625 16.507812 -19.832031 18.125 -18.1875 C 19.75 -16.550781 20.5625 -14.191406 20.5625 -11.109375 C 20.5625 -7.441406 19.617188 -4.625 17.734375 -2.65625 C 15.859375 -0.695312 13.160156 0.28125 9.640625 0.28125 C 7.441406 0.28125 4.863281 0.1875 1.90625 0 L 2.21875 -6.03125 L 1.90625 -20.53125 Z M 10.859375 -4.4375 C 11.847656 -4.4375 12.601562 -4.832031 13.125 -5.625 C 13.644531 -6.425781 13.90625 -7.734375 13.90625 -9.546875 C 13.90625 -11.097656 13.796875 -12.316406 13.578125 -13.203125 C 13.367188 -14.085938 13.03125 -14.722656 12.5625 -15.109375 C 12.101562 -15.503906 11.457031 -15.703125 10.625 -15.703125 C 9.820312 -15.703125 9.03125 -15.660156 8.25 -15.578125 L 8.03125 -6.671875 L 8.09375 -4.703125 C 9.363281 -4.523438 10.285156 -4.4375 10.859375 -4.4375 Z M 10.859375 -4.4375 "/></g></g></g><g fill="#0b6095" fill-opacity="1"><g transform="translate(299.599791, 289.933434)"><g><path d="M 15.421875 -8.09375 C 16.941406 -5.71875 18.46875 -3.515625 20 -1.484375 L 19.890625 -0.796875 C 17.734375 -0.140625 15.609375 0.25 13.515625 0.375 L 12.921875 -0.125 L 12.53125 -0.921875 C 12.363281 -1.253906 12.023438 -1.96875 11.515625 -3.0625 C 11.015625 -4.15625 10.570312 -5.175781 10.1875 -6.125 L 8.0625 -6.125 L 8.28125 0 L 1.90625 0 L 2.21875 -6.03125 L 1.90625 -20.53125 L 11.640625 -20.5625 C 13.953125 -20.5625 15.726562 -20.015625 16.96875 -18.921875 C 18.21875 -17.835938 18.84375 -16.269531 18.84375 -14.21875 C 18.84375 -13.007812 18.539062 -11.875 17.9375 -10.8125 C 17.34375 -9.757812 16.503906 -8.851562 15.421875 -8.09375 Z M 12.15625 -13.578125 C 12.15625 -14.429688 11.9375 -15.0625 11.5 -15.46875 C 11.070312 -15.882812 10.367188 -16.113281 9.390625 -16.15625 L 8.25 -16.0625 L 8.125 -10.765625 L 10.4375 -10.625 C 11.03125 -10.90625 11.460938 -11.273438 11.734375 -11.734375 C 12.015625 -12.203125 12.15625 -12.816406 12.15625 -13.578125 Z M 12.15625 -13.578125 "/></g></g></g><g fill="#0b6095" fill-opacity="1"><g transform="translate(321.210813, 289.933434)"><g><path d="M 12.125 -5.390625 L 12.375 0 L 6.03125 0 L 6.34375 -5.390625 L 6.3125 -6.375 L -0.25 -20.53125 L 6.40625 -20.53125 L 6.921875 -18.8125 L 9.234375 -12.625 L 9.609375 -12.625 L 12.28125 -18.59375 L 13.015625 -20.53125 L 19.484375 -20.53125 L 12.1875 -6.59375 Z M 12.125 -5.390625 "/></g></g></g></svg>